<svg xmlns="http://www.w3.org/2000/svg" width="453" height="453" style="shape-rendering:geometricPrecision;text-rendering:geometricPrecision;image-rendering:optimizeQuality;fill-rule:evenodd;clip-rule:evenodd"><path style="opacity:.996" fill="#6528dd" d="M204.5-.5h43c85.441 11.634 147.274 55.968 185.5 133 9.962 23.192 16.462 47.192 19.5 72v43c-11.634 85.441-55.968 147.274-133 185.5-23.192 9.962-47.192 16.462-72 19.5h-43c-85.441-11.634-147.274-55.968-185.5-133-9.962-23.192-16.462-47.192-19.5-72v-43C11.134 119.059 55.468 57.226 132.5 19c23.192-9.962 47.192-16.462 72-19.5Z"/><path style="opacity:1" fill="#f1f0f3" d="M234.5 325.5c.167-76.001 0-152.001-.5-228-.995.566-1.828 1.233-2.5 2-9.981 4.598-18.481 11.265-25.5 20-16.724 23.8-27.724 50.133-33 79a615.665 615.665 0 0 0-10.5 99c-.994 9.152-1.327 18.485-1 28h-3a34169.455 34169.455 0 0 1-98-227c-.283-.79-.783-1.456-1.5-2-.167 76.501-.667 152.834-1.5 229-1-78.498-1.333-157.165-1-236 9.583-.318 19.083.015 28.5 1a27897.214 27897.214 0 0 0 76 175c2.115-41.914 11.115-82.247 27-121 8.149-18.81 20.649-33.976 37.5-45.5a70.384 70.384 0 0 1 25-9 935.94 935.94 0 0 1 81 1c16.92 1.245 32.587 6.245 47 15 19.705 15.487 24.872 34.987 15.5 58.5-6.346 12.678-16.18 21.511-29.5 26.5a172.728 172.728 0 0 0-14 5c17.919.978 34.586 5.978 50 15 14.664 12.976 21.331 29.309 20 49 .391 36.618-17.609 57.618-54 63a304.77 304.77 0 0 0-13 2 1208.055 1208.055 0 0 1-65.5 1.5c-18.003 0-35.836-.333-53.5-1Z"/><path style="opacity:1" fill="#6528dd" d="M276.5 92.5a513.618 513.618 0 0 1 52 1.5c33.184 7.857 47.35 28.69 42.5 62.5-5.169 28.166-22.003 40.666-50.5 37.5-16.72-6.386-28.553-17.886-35.5-34.5-7.396-21.722-10.229-44.055-8.5-67Z"/><path style="opacity:1" fill="#b195e8" d="M60.5 98.5c-.667 75.834-1.333 151.834-2 228-.607-.124-.94-.457-1-1 .833-76.166 1.333-152.499 1.5-229 .717.544 1.217 1.21 1.5 2Z"/><path style="opacity:1" fill="#7742e0" d="M234.5 325.5a12741.589 12741.589 0 0 0-3-226c.672-.767 1.505-1.434 2.5-2 .5 75.999.667 151.999.5 228Z"/><path style="opacity:1" fill="#6528dd" d="M276.5 142.5c4.019 19.872 14.019 36.039 30 48.5a57.995 57.995 0 0 0 16 6c11.728.3 23.395 1.3 35 3 18.167 4.833 29.667 16.333 34.5 34.5 4.15 20.291 3.15 40.291-3 60-9.312 18.427-24.479 27.927-45.5 28.5-22.331.5-44.664.667-67 .5v-181Z"/><path style="opacity:1" fill="#b499e9" d="M162.5 297.5v29c-1.599.268-2.932-.066-4-1h3c-.327-9.515.006-18.848 1-28Z"/></svg>