<svg xmlns="http://www.w3.org/2000/svg" xmlns:xlink="http://www.w3.org/1999/xlink" width="453" height="453" version="1.1" style="shape-rendering:geometricPrecision;text-rendering:geometricPrecision;image-rendering:optimizeQuality;fill-rule:evenodd;clip-rule:evenodd"><g><path style="opacity:.996" fill="#6528dd" d="M 204.5,-0.5 C 218.833,-0.5 233.167,-0.5 247.5,-0.5C 332.941,11.1343 394.774,55.4676 433,132.5C 442.962,155.692 449.462,179.692 452.5,204.5C 452.5,218.833 452.5,233.167 452.5,247.5C 440.866,332.941 396.532,394.774 319.5,433C 296.308,442.962 272.308,449.462 247.5,452.5C 233.167,452.5 218.833,452.5 204.5,452.5C 119.059,440.866 57.2257,396.532 19,319.5C 9.03773,296.308 2.53773,272.308 -0.5,247.5C -0.5,233.167 -0.5,218.833 -0.5,204.5C 11.1343,119.059 55.4676,57.2257 132.5,19C 155.692,9.03773 179.692,2.53773 204.5,-0.5 Z"/></g><g><path style="opacity:1" fill="#f1f0f3" d="M 234.5,325.5 C 234.667,249.499 234.5,173.499 234,97.5C 233.005,98.0659 232.172,98.7326 231.5,99.5C 221.519,104.098 213.019,110.765 206,119.5C 189.276,143.3 178.276,169.633 173,198.5C 166.828,231.212 163.328,264.212 162.5,297.5C 161.506,306.652 161.173,315.985 161.5,325.5C 160.5,325.5 159.5,325.5 158.5,325.5C 125.561,249.954 92.8939,174.288 60.5,98.5C 60.2172,97.7109 59.7172,97.0442 59,96.5C 58.833,173.001 58.333,249.334 57.5,325.5C 56.5007,247.002 56.1674,168.335 56.5,89.5C 66.0834,89.1816 75.5834,89.5149 85,90.5C 110.147,148.95 135.48,207.283 161,265.5C 163.115,223.586 172.115,183.253 188,144.5C 196.149,125.69 208.649,110.524 225.5,99C 233.262,94.4128 241.595,91.4128 250.5,90C 277.517,89.1644 304.517,89.4977 331.5,91C 348.42,92.2449 364.087,97.2449 378.5,106C 398.205,121.487 403.372,140.987 394,164.5C 387.654,177.178 377.82,186.011 364.5,191C 359.713,192.483 355.046,194.15 350.5,196C 368.419,196.978 385.086,201.978 400.5,211C 415.164,223.976 421.831,240.309 420.5,260C 420.891,296.618 402.891,317.618 366.5,323C 362.152,323.573 357.819,324.24 353.5,325C 331.687,326.092 309.854,326.592 288,326.5C 269.997,326.5 252.164,326.167 234.5,325.5 Z"/></g><g><path style="opacity:1" fill="#6528dd" d="M 276.5,92.5 C 293.868,92.1219 311.201,92.6219 328.5,94C 361.684,101.857 375.85,122.69 371,156.5C 365.831,184.666 348.997,197.166 320.5,194C 303.78,187.614 291.947,176.114 285,159.5C 277.604,137.778 274.771,115.445 276.5,92.5 Z"/></g><g><path style="opacity:1" fill="#b195e8" d="M 60.5,98.5 C 59.8333,174.334 59.1667,250.334 58.5,326.5C 57.8933,326.376 57.56,326.043 57.5,325.5C 58.333,249.334 58.833,173.001 59,96.5C 59.7172,97.0442 60.2172,97.7109 60.5,98.5 Z"/></g><g><path style="opacity:1" fill="#7742e0" d="M 234.5,325.5 C 234.166,249.994 233.166,174.661 231.5,99.5C 232.172,98.7326 233.005,98.0659 234,97.5C 234.5,173.499 234.667,249.499 234.5,325.5 Z"/></g><g><path style="opacity:1" fill="#6528dd" d="M 276.5,142.5 C 280.519,162.372 290.519,178.539 306.5,191C 311.534,193.789 316.868,195.789 322.5,197C 334.228,197.3 345.895,198.3 357.5,200C 375.667,204.833 387.167,216.333 392,234.5C 396.15,254.791 395.15,274.791 389,294.5C 379.688,312.927 364.521,322.427 343.5,323C 321.169,323.5 298.836,323.667 276.5,323.5C 276.5,263.167 276.5,202.833 276.5,142.5 Z"/></g><g><path style="opacity:1" fill="#b499e9" d="M 162.5,297.5 C 162.5,307.167 162.5,316.833 162.5,326.5C 160.901,326.768 159.568,326.434 158.5,325.5C 159.5,325.5 160.5,325.5 161.5,325.5C 161.173,315.985 161.506,306.652 162.5,297.5 Z"/></g></svg>